# xmcd
#
# Track frame offsets:
#	150
#	26668
#	55823
#	77447
#	100358
#	129797
#	167356
#	179170
#	217625
#	246440
#	283487
#	298841
#
# Disc length: 4230 seconds
#
# Revision: 3
# Processed by: cddbd v1.5.2PL0 Copyright (c) Steve Scherf et al.
# Submitted via: audiograbber 1.83.01
#
DISCID=ab10840c
DTITLE=—борник - Time Blues  vol.9
DYEAR=2008
DGENRE=Blues
TTITLE0=Volker Klenner and His Boston Blues Friends - The Way I found The Blues
TTITLE1=Steve Pierson - Secrets
TTITLE2=Susan Tedeshi - Just Want Burn
TTITLE3=Blues Plus - You Will Bay the Price
TTITLE4=Meta - Blues
TTITLE5=Gajan Edvards and Kammien - Woman Blues
TTITLE6=Bill Lee Riley - I hear you knocking
TTITLE7=Danny Eyer - Trouble time
TTITLE8=Bono and Jool Holland and Rhytm and Blues Orchestra - If You Wear That 
TTITLE8=Velvet Dress
TTITLE9=Dixie Peach - Deatch dont have No A Mercy
TTITLE10=Mark Cook - Dont You Ever Leave
TTITLE11=Bryan Lee - Gee Baby, Aint I Good To You
EXTD=YEAR: 2008
EXTT0=
EXTT1=
EXTT2=
EXTT3=
EXTT4=
EXTT5=
EXTT6=
EXTT7=
EXTT8=
EXTT9=
EXTT10=
EXTT11=
PLAYORDER=
